<svg aria-hidden="true" style="position: absolute; width: 0; height: 0; overflow: hidden;" version="1.1" xmlns="http://www.w3.org/2000/svg" xmlns:xlink="http://www.w3.org/1999/xlink">
<defs>
<symbol id="icon-logo" viewBox="0 0 89 32">
<path fill="#fff" style="fill: var(--color1, #fff)" d="M0 31.31c0-0.029 0.101-0.431 0.302-1.208 0.201-0.805 0.373-1.653 0.517-2.544 0.144-0.92 0.215-1.783 0.215-2.588v-18.027c0-0.805-0.072-1.653-0.215-2.544-0.144-0.92-0.316-1.768-0.517-2.544-0.201-0.805-0.302-1.222-0.302-1.251v-0.172h13.315c3.045 0 5.487 0.733 7.325 2.199s2.758 3.436 2.758 5.908c0 2.358-0.776 4.226-2.327 5.607-1.523 1.351-3.591 2.171-6.205 2.458 2.614 0.661 4.553 2.171 5.817 4.528 0.46 0.891 0.991 1.955 1.594 3.191s1.063 2.185 1.379 2.846c0.345 0.633 0.776 1.337 1.293 2.113 0.517 0.747 1.077 1.423 1.681 2.027v0.173h-6.851c-0.862-0.805-2.269-3.493-4.223-8.065-1.551-3.623-3.533-5.707-5.946-6.253h-2.887v7.806c0 1.294 0.345 3.407 1.034 6.34v0.173h-7.756v-0.173zM6.722 15.483h4.524c1.925 0 3.404-0.561 4.438-1.682 1.063-1.121 1.594-2.789 1.594-5.003 0-2.156-0.503-3.824-1.508-5.003-1.005-1.208-2.442-1.811-4.309-1.811h-4.74v13.499zM7.756 17.078c0.086 0 0.158 0 0.215 0-0.172 0-0.302 0.014-0.388 0.043 0.029 0 0.086-0.014 0.172-0.043z"></path>
<path fill="#fff" style="fill: var(--color1, #fff)" d="M28.485 29.973c0.259-0.776 0.488-1.495 0.689-2.156s0.388-1.524 0.56-2.588c0.201-1.064 0.302-2.041 0.302-2.933v-15.31c0-0.633-0.072-1.323-0.215-2.070s-0.302-1.366-0.474-1.854c-0.172-0.518-0.359-1.035-0.56-1.553-0.172-0.517-0.273-0.819-0.302-0.906v-0.172h7.196l9.437 23.935 9.049-23.935h6.679v0.172c0 0.029-0.101 0.446-0.302 1.251-0.201 0.776-0.373 1.624-0.517 2.544-0.144 0.891-0.215 1.739-0.215 2.544v18.027c0 0.805 0.072 1.667 0.215 2.588 0.144 0.891 0.316 1.739 0.517 2.544 0.201 0.776 0.302 1.179 0.302 1.208v0.173h-7.713v-0.173c0.689-2.933 1.034-5.046 1.034-6.34v-19.364l-9.738 25.876h-1.982v-0.043l-0.388 0.043-10.126-25.747c-0.029 0.259-0.043 0.676-0.043 1.251v15.31c0 0.891 0.086 1.869 0.259 2.933 0.201 1.064 0.402 1.926 0.603 2.588s0.431 1.395 0.689 2.199c0.259 0.776 0.402 1.193 0.431 1.251v0.216h-5.817v-0.216c0.029-0.057 0.172-0.489 0.431-1.294z"></path>
<path fill="#fff" style="fill: var(--color1, #fff)" d="M67.96 4.442c2.786-2.961 6.32-4.442 10.6-4.442 2.873 0 6.248 0.661 10.126 1.984v6.943h-0.259c-3.131-4.744-6.248-7.116-9.351-7.116-2.528 0-4.654 1.366-6.377 4.097-1.695 2.703-2.542 6.052-2.542 10.049s0.876 7.375 2.629 10.135c1.781 2.731 3.892 4.097 6.334 4.097 1.58 0 3.174-0.676 4.783-2.027 1.637-1.38 3.145-3.105 4.524-5.175h0.259v7.030c-4.022 1.323-7.469 1.984-10.342 1.984-4.108 0-7.569-1.495-10.385-4.485s-4.223-6.828-4.223-11.515c0-4.744 1.408-8.597 4.223-11.558z"></path>
</symbol>
<symbol id="icon-burger" viewBox="0 0 36 32">
<path fill="#fff" style="fill: var(--color1, #fff)" d="M0 2.286c0-0.606 0.237-1.188 0.659-1.616s0.994-0.669 1.591-0.669h31.5c0.597 0 1.169 0.241 1.591 0.669s0.659 1.010 0.659 1.616-0.237 1.188-0.659 1.616c-0.422 0.429-0.994 0.669-1.591 0.669h-31.5c-0.597 0-1.169-0.241-1.591-0.669s-0.659-1.010-0.659-1.616zM0 29.714c0-0.606 0.237-1.188 0.659-1.616s0.994-0.669 1.591-0.669h31.5c0.597 0 1.169 0.241 1.591 0.669s0.659 1.010 0.659 1.616c0 0.606-0.237 1.188-0.659 1.616s-0.994 0.669-1.591 0.669h-31.5c-0.597 0-1.169-0.241-1.591-0.669s-0.659-1.010-0.659-1.616zM15.75 13.714c-0.597 0-1.169 0.241-1.591 0.669s-0.659 1.010-0.659 1.616 0.237 1.188 0.659 1.616c0.422 0.429 0.994 0.669 1.591 0.669h18c0.597 0 1.169-0.241 1.591-0.669s0.659-1.010 0.659-1.616-0.237-1.188-0.659-1.616c-0.422-0.429-0.994-0.669-1.591-0.669h-18z"></path>
</symbol>
</defs>
</svg>
